<?xml version="1.0" encoding="UTF-8" standalone="no"?>
<!-- Created with Inkscape (http://www.inkscape.org/) -->

<svg
   xmlns:dc="http://purl.org/dc/elements/1.1/"
   xmlns:cc="http://creativecommons.org/ns#"
   xmlns:rdf="http://www.w3.org/1999/02/22-rdf-syntax-ns#"
   xmlns:svg="http://www.w3.org/2000/svg"
   xmlns="http://www.w3.org/2000/svg"
   xmlns:sodipodi="http://sodipodi.sourceforge.net/DTD/sodipodi-0.dtd"
   xmlns:inkscape="http://www.inkscape.org/namespaces/inkscape"
   width="30.791618mm"
   height="43.515709mm"
   viewBox="0 0 109.10416 154.18952"
   id="svg4340"
   version="1.1"
   inkscape:version="0.91 r13725"
   sodipodi:docname="thinking-exercise-resized.svg"
   inkscape:export-filename="/home/jr0cket/projects/clojurebridgelondon/community-docs-next/img/thinking-exercise.png"
   inkscape:export-xdpi="90"
   inkscape:export-ydpi="90">
  <defs
     id="defs4342" />
  <sodipodi:namedview
     id="base"
     pagecolor="#ffffff"
     bordercolor="#666666"
     borderopacity="1.0"
     inkscape:pageopacity="0.0"
     inkscape:pageshadow="2"
     inkscape:zoom="1"
     inkscape:cx="-253.24023"
     inkscape:cy="30.771142"
     inkscape:document-units="px"
     inkscape:current-layer="layer1"
     showgrid="false"
     units="mm"
     fit-margin-top="2"
     fit-margin-left="2"
     fit-margin-right="2"
     fit-margin-bottom="2"
     inkscape:window-width="2560"
     inkscape:window-height="1416"
     inkscape:window-x="0"
     inkscape:window-y="24"
     inkscape:window-maximized="1" />
  <metadata
     id="metadata4345">
    <rdf:RDF>
      <cc:Work
         rdf:about="">
        <dc:format>image/svg+xml</dc:format>
        <dc:type
           rdf:resource="http://purl.org/dc/dcmitype/StillImage" />
        <dc:title></dc:title>
      </cc:Work>
    </rdf:RDF>
  </metadata>
  <g
     inkscape:label="Layer 1"
     inkscape:groupmode="layer"
     id="layer1"
     transform="translate(6.1619487,-902.68831)">
    <path
       inkscape:connector-curvature="0"
       d="m 49.987527,912.61404 c -0.652848,-0.0654 -1.305696,-0.0453 -1.959088,-0.0189 -0.653392,-0.0264 -1.30624,-0.0465 -1.959087,0.0189 -30.074647,0.45378 -49.7850537,25.49779 -45.85290164,50.44401 2.16856504,14.04889 10.49629764,21.61469 15.56197064,26.54985 10.892834,10.591 8.983303,13.6519 12.63836,18.9563 -1.982867,2.3565 -2.180637,5.9858 -0.149575,8.3691 -1.575983,2.4012 -1.603303,5.7774 0.427759,7.9627 -1.858433,2.687 -1.688891,6.484 0.757405,8.4778 -0.529412,3.1307 1.968345,8.4344 8.745054,8.3289 0.166547,0.593 0.237341,2.9889 2.590696,4.4035 2.068546,1.2855 3.015098,0.713 10.966624,0.8902 1.228639,0.018 2.48623,-0.2516 3.513832,-0.8902 2.351268,-1.4133 2.424422,-3.8115 2.590697,-4.4035 6.339783,0.099 9.331192,-4.8633 8.745054,-8.3289 2.467171,-2.0108 2.598049,-5.8166 0.757405,-8.4778 2.031061,-2.1853 2.003742,-5.5616 0.427759,-7.9627 2.031061,-2.3833 1.833292,-6.0126 -0.149575,-8.3691 1.685351,-2.4458 2.481329,-5.2891 3.824146,-7.8898 3.663226,-7.50461 10.786553,-12.12234 15.896517,-18.47696 21.848021,-27.39985 1.799892,-68.99234 -37.373052,-69.5834 z"
       id="path74160"
       style="fill:#ffffff;fill-opacity:1;stroke:#000000;stroke-width:5.58874369;stroke-miterlimit:4;stroke-dasharray:none;stroke-opacity:1" />
    <path
       id="path74164"
       d="m 40.711064,935.51529 c 4.421357,4.4434 4.018194,10.42944 -1.106383,14.45317 4.229487,3.28162 5.714618,9.01805 2.671112,13.4796 -1.960359,-0.73692 -4.285669,-0.83219 -6.208996,0.0521 -1.397455,-0.90209 -3.159953,-1.30403 -4.83886,-0.94679 -1.275925,-4.35225 -5.257452,-6.40772 -10.034775,-5.41422 0,-1.08819 -0.260485,-2.17637 -0.857152,-3.12165 1.884754,-0.16081 3.734111,-0.87529 5.081738,-2.12134 1.992397,2.22897 5.27161,2.86548 8.143668,1.16708 0.74615,1.44248 2.032695,2.64981 3.642441,3.2601 0.263753,-0.60441 0.519428,-1.21026 0.791168,-1.81014 -3.308802,-1.3136 -4.341758,-6.07509 -0.77356,-8.35573 -0.402074,-0.53889 -0.799246,-1.08071 -1.201319,-1.61817 -2.262685,1.39787 -3.468724,4.01929 -3.08444,6.50241 -2.241356,1.68798 -4.819255,1.16237 -6.196198,-0.76817 0.665736,-1.19833 0.889281,-2.61402 0.477587,-3.91662 3.080809,-1.75427 3.368341,-5.21299 2.040773,-7.83466 4.272508,-0.1025 7.138484,-2.58486 7.276805,-6.47115 2.031061,-0.58946 3.635997,-2.20469 4.094343,-4.13094 -0.670637,-0.16224 -1.344451,-0.31112 -2.024618,-0.43613 -0.823933,3.39436 -5.331331,3.75513 -7.841341,1.10305 -0.541937,0.42127 -1.066176,0.85891 -1.587238,1.29958 1.328295,1.40526 3.219493,2.36843 5.255365,2.45926 -1.095673,8.63996 -16.192219,2.50782 -13.146534,-4.42576 0.858513,-2.10891 3.526539,-3.74287 6.543542,-2.58722 10.056195,-13.77146 20.64153,0.533 12.882872,10.18235 z m -21.600516,-3.61147 c 1.451368,3.49065 3.947854,5.16234 7.252753,6.25523 2.952836,2.17259 1.676729,7.14505 -2.362341,6.98021 2.288461,2.42162 1.542402,4.56472 -0.87485,5.91437 -5.243656,2.85178 -6.652638,-1.56801 -12.882781,1.45441 -3.9268876,-4.36846 0.268927,-10.88019 6.070766,-10.77626 -3.045503,-3.00411 -3.142073,-9.27647 2.796453,-9.82796 z m -0.681891,28.16953 c 5.138917,-2.09723 9.522245,-1.69067 10.858164,3.33606 -1.57435,1.07483 -2.431501,2.92664 -2.166206,4.72343 -5.70781,3.53602 -3.945766,11.11829 3.447849,11.8079 0.36822,2.51581 2.400915,4.61925 4.924085,5.51395 0.286262,-0.59543 0.508174,-1.21321 0.765482,-1.81762 -4.603787,-1.74159 -5.221147,-7.40458 0.268564,-8.76364 -0.156019,-0.63265 -0.305503,-1.26681 -0.458346,-1.89954 -2.706508,0.5551 -4.796928,2.2094 -5.474099,4.99733 -5.812005,-0.67751 -6.417294,-6.23708 -1.046935,-8.83362 -1.270842,-5.00909 3.00339,-6.01679 6.382714,-3.0904 6.05706,-4.70788 13.269969,4.77645 6.149546,11.79892 8.393172,8.40539 -1.05483,18.73342 -9.11173,11.11266 -6.148276,2.29324 -9.889738,-1.00644 -9.061903,-6.79713 -6.426823,1.69974 -10.363059,-3.00058 -8.468503,-8.8574 -6.0004258,-1.74848 -8.2210879,-6.65801 -7.9474419,-12.03416 0.8230254,-11.09528 15.1233199,-9.91232 10.9387599,-1.19674 z"
       class="st0"
       inkscape:connector-curvature="0"
       style="fill:#63b132;fill-opacity:1" />
    <path
       id="path74166"
       d="m 68.228686,925.33303 c 3.008472,-1.15238 5.681944,0.47074 6.543543,2.58721 3.047499,6.93787 -12.052313,13.0543 -13.146534,4.42576 2.035871,-0.0908 3.927069,-1.05399 5.255364,-2.45926 -0.521062,-0.44067 -1.0453,-0.87831 -1.587237,-1.29957 -2.509284,2.65132 -7.017227,2.29198 -7.841342,-1.10306 -0.680257,0.12502 -1.354071,0.2739 -2.024617,0.43613 0.458346,1.92634 2.063282,3.54148 4.094343,4.13095 0.13832,3.88637 3.00466,6.36856 7.276805,6.47115 -1.314953,2.59679 -1.066448,6.06543 2.040772,7.83466 -0.411694,1.3026 -0.188148,2.71828 0.477588,3.91661 -1.372859,1.92483 -3.948853,2.46069 -6.196199,0.76817 0.384375,-2.48304 -0.821754,-5.10453 -3.084439,-6.5024 -0.402074,0.53737 -0.799246,1.07928 -1.20132,1.61816 3.566837,2.27972 2.536513,7.04163 -0.77356,8.35573 0.27174,0.59997 0.527506,1.20582 0.791168,1.81015 1.609746,-0.61038 2.896291,-1.81762 3.642441,-3.26011 2.833394,1.67547 6.121774,1.09483 8.143669,-1.16708 1.347627,1.24597 3.196983,1.96054 5.081737,2.12134 -0.596575,0.94528 -0.857152,2.03347 -0.857152,3.12165 -4.772513,-0.99249 -8.75767,1.05769 -10.034775,5.41422 -1.678906,-0.35724 -3.441404,0.0447 -4.83886,0.94679 -1.923327,-0.88428 -4.248728,-0.789 -6.208995,-0.0521 -3.046955,-4.46668 -1.553202,-10.20201 2.671111,-13.47959 -5.125938,-4.02483 -5.526559,-10.01095 -1.106383,-14.45318 -6.890796,-8.57006 0.479857,-18.79618 7.625783,-15.15136 2.232189,1.14465 3.851647,3.04419 5.257089,4.96902 z m 11.51437,16.39884 c 5.799933,-0.10393 9.999287,6.40595 6.070765,10.77626 -1.424411,-0.69104 -3.418986,-1.72579 -7.15945,-0.70264 -4.241921,1.17439 -10.801438,-2.21821 -6.598181,-6.66615 -4.038978,0.16476 -5.315721,-4.80728 -2.362341,-6.98021 3.180556,-1.05181 5.75301,-2.64846 7.252753,-6.25523 5.879078,0.54586 5.875357,6.79067 2.796454,9.82797 z m 0.876393,31.57255 c 1.891379,5.84682 -2.02734,10.56092 -8.468504,8.85739 0.828018,5.79196 -2.948025,9.07753 -9.061902,6.79714 -8.109724,7.67066 -17.458251,-2.75407 -9.111731,-11.11266 -7.129136,-7.03113 0.08305,-16.51412 6.149547,-11.79892 3.337755,-2.89043 7.663812,-1.95885 6.382713,3.09039 5.349756,2.58655 4.787398,8.15351 -1.046934,8.83363 -0.672724,-2.76954 -2.744901,-4.43761 -5.4741,-4.99733 -0.152751,0.63265 -0.302326,1.26681 -0.458345,1.89954 5.481179,1.35687 4.877887,7.01995 0.268563,8.76363 0.257309,0.60442 0.479221,1.2222 0.765483,1.81763 2.52317,-0.8947 4.555865,-2.99815 4.924085,-5.51395 7.400331,-0.6902 9.153571,-8.27323 3.447848,-11.8079 0.265387,-1.79679 -0.591765,-3.64869 -2.166205,-4.72343 1.339822,-5.04161 5.725055,-5.43094 10.858164,-3.33606 -3.380776,-7.04146 4.718419,-8.28861 8.174164,-5.15218 4.364449,3.87075 4.404293,15.58951 -5.182846,18.38308 z"
       class="st0"
       inkscape:connector-curvature="0"
       style="fill:#5881d8;fill-opacity:1" />
    <rect
       style="fill:#000000;fill-opacity:1;stroke:#000000;stroke-width:0;stroke-linejoin:miter;stroke-miterlimit:4;stroke-dasharray:none;stroke-dashoffset:0;stroke-opacity:1"
       id="rect74220"
       width="26.695244"
       height="1.0589964"
       x="34.173058"
       y="1058.3497"
       rx="0.36825213"
       ry="0" />
    <rect
       style="fill:#000000;fill-opacity:1;stroke:#000000;stroke-width:0;stroke-linejoin:miter;stroke-miterlimit:4;stroke-dasharray:none;stroke-dashoffset:0;stroke-opacity:1"
       id="rect74220-4"
       width="26.695244"
       height="1.0589964"
       x="34.173058"
       y="1050.6489"
       rx="0.36825213"
       ry="0" />
    <rect
       style="fill:#000000;fill-opacity:1;stroke:#000000;stroke-width:0;stroke-linejoin:miter;stroke-miterlimit:4;stroke-dasharray:none;stroke-dashoffset:0;stroke-opacity:1"
       id="rect74220-0"
       width="26.695244"
       height="1.0589964"
       x="34.173058"
       y="1066.0503"
       rx="0.36825213"
       ry="0" />
    <path
       id="path74164-1"
       d="m -147.28741,647.99383 c 3.13334,3.14897 2.84762,7.39117 -0.78407,10.24271 2.99736,2.32563 4.04985,6.39094 1.89297,9.55276 -1.38928,-0.52224 -3.03718,-0.58976 -4.40021,0.0369 -0.99035,-0.63929 -2.23941,-0.92414 -3.42922,-0.67097 -0.90422,-3.08436 -3.72586,-4.54104 -7.11147,-3.83696 0,-0.77118 -0.1846,-1.54236 -0.60744,-2.21226 1.33569,-0.11396 2.6463,-0.6203 3.60133,-1.50336 1.41198,1.57963 3.7359,2.03072 5.77128,0.82709 0.52878,1.02226 1.44054,1.87788 2.58133,2.31038 0.18692,-0.42834 0.36811,-0.85769 0.56069,-1.28282 -2.34489,-0.93092 -3.07693,-4.30531 -0.54821,-5.92156 -0.28494,-0.3819 -0.56641,-0.76588 -0.85135,-1.14677 -1.60353,0.99065 -2.45823,2.8484 -2.18589,4.60815 -1.58841,1.19624 -3.41532,0.82375 -4.39114,-0.54439 0.4718,-0.84924 0.63022,-1.85251 0.33846,-2.77564 2.18331,-1.24322 2.38708,-3.69436 1.44626,-5.55229 3.02785,-0.0726 5.05892,-1.83184 5.15694,-4.58599 1.43938,-0.41774 2.57677,-1.56242 2.90159,-2.92752 -0.47526,-0.11498 -0.95279,-0.22049 -1.43481,-0.30908 -0.58391,2.40552 -3.77822,2.66119 -5.55702,0.78171 -0.38406,0.29855 -0.75558,0.60869 -1.12485,0.92099 0.94134,0.99588 2.2816,1.67847 3.72439,1.74283 -0.77648,6.12299 -11.47515,1.77725 -9.31672,-3.13645 0.60841,-1.49455 2.49919,-2.65251 4.63729,-1.83352 7.12665,-9.7596 14.6283,0.37773 9.12987,7.21605 z m -15.30791,-2.55938 c 1.02856,2.47376 2.79778,3.65846 5.1399,4.43297 2.09262,1.53968 1.18827,5.06357 -1.67415,4.94675 1.62179,1.71616 1.09307,3.23494 -0.61999,4.19142 -3.71609,2.021 -4.71461,-1.11123 -9.1298,1.03071 -2.78292,-3.09585 0.19058,-7.7106 4.30224,-7.63695 -2.15829,-2.12896 -2.22673,-6.57407 1.9818,-6.9649 z m -0.48325,19.96325 c 3.64187,-1.48627 6.74826,-1.19814 7.695,2.36421 -1.11572,0.76171 -1.72316,2.07406 -1.53516,3.34741 -4.04502,2.50592 -2.79629,7.87934 2.44344,8.36806 0.26095,1.78291 1.70149,3.27358 3.48961,3.90764 0.20287,-0.42197 0.36013,-0.85978 0.54248,-1.28812 -3.26262,-1.23423 -3.70013,-5.2475 0.19033,-6.21064 -0.11057,-0.44835 -0.2165,-0.89776 -0.32482,-1.34617 -1.91806,0.39339 -3.3995,1.56576 -3.8794,3.54152 -4.11887,-0.48014 -4.54783,-4.42011 -0.74195,-6.26023 -0.90062,-3.54986 2.12845,-4.26399 4.52333,-2.19011 4.29253,-3.3364 9.40418,3.38498 4.35807,8.36169 5.94809,5.95675 -0.74754,13.27604 -6.45733,7.87534 -4.35717,1.62518 -7.00868,-0.71324 -6.42201,-4.817 -4.55457,1.20457 -7.34412,-2.12646 -6.00148,-6.27709 -4.2524,-1.23912 -5.82614,-4.71841 -5.63221,-8.5284 0.58326,-7.86303 10.71763,-7.02469 7.7521,-0.84811 z"
       class="st0"
       inkscape:connector-curvature="0"
       style="fill:#63b132;fill-opacity:1" />
    <path
       id="path74166-0"
       d="m -127.78615,640.77784 c 2.13205,-0.81667 4.0267,0.33361 4.6373,1.83352 2.1597,4.91674 -8.54127,9.25135 -9.31673,3.13645 1.44279,-0.0643 2.78305,-0.74694 3.72438,-1.74283 -0.36926,-0.3123 -0.74077,-0.62244 -1.12484,-0.92098 -1.77829,1.87894 -4.97299,1.62428 -5.55702,-0.78172 -0.48209,0.0886 -0.95961,0.19411 -1.43481,0.30908 0.32482,1.36516 1.46221,2.50978 2.90159,2.92753 0.098,2.7542 2.12935,4.51329 5.15694,4.58599 -0.93189,1.8403 -0.75577,4.29846 1.44626,5.55229 -0.29176,0.92313 -0.13334,1.92639 0.33846,2.77563 -0.97292,1.36409 -2.79849,1.74385 -4.39114,0.54439 0.2724,-1.75969 -0.58236,-3.61749 -2.18589,-4.60814 -0.28494,0.38082 -0.56641,0.76487 -0.85135,1.14676 2.52776,1.6156 1.79758,4.99028 -0.54821,5.92156 0.19258,0.42519 0.37383,0.85455 0.56069,1.28282 1.14079,-0.43256 2.05255,-1.28811 2.58133,-2.31038 2.00798,1.18738 4.33839,0.77589 5.77128,-0.82709 0.95503,0.883 2.26564,1.3894 3.60133,1.50336 -0.42278,0.6699 -0.60744,1.44108 -0.60744,2.21226 -3.3822,-0.70336 -6.20641,0.74956 -7.11147,3.83696 -1.18981,-0.25317 -2.43887,0.0317 -3.42922,0.67097 -1.36303,-0.62667 -3.011,-0.55915 -4.40021,-0.0369 -2.15932,-3.16546 -1.10072,-7.22999 1.89297,-9.55275 -3.63266,-2.85233 -3.91657,-7.09458 -0.78407,-10.24272 -4.88339,-6.07345 0.34007,-13.32052 5.40426,-10.7375 1.58191,0.81119 2.7296,2.15736 3.72561,3.52146 z m 8.16003,11.62158 c 4.11032,-0.0737 7.08632,4.53978 4.30225,7.63694 -1.00946,-0.48972 -2.42298,-1.22303 -5.07378,-0.49794 -3.00617,0.83227 -7.65479,-1.57201 -4.67601,-4.72419 -2.86236,0.11676 -3.76716,-3.40683 -1.67415,-4.94675 2.254,-0.7454 4.07705,-1.87692 5.13989,-4.43297 4.16641,0.38684 4.16377,4.81243 1.9818,6.96491 z m 0.62109,22.37491 c 1.34038,4.14354 -1.43674,7.48434 -6.00149,6.27708 0.58681,4.10466 -2.08921,6.43309 -6.42201,4.81701 -5.74721,5.43607 -12.37235,-1.95176 -6.45732,-7.87534 -5.0523,-4.98284 0.0589,-11.70327 4.35808,-8.36169 2.3654,-2.0484 5.43121,-1.38821 4.52331,2.1901 3.79128,1.83305 3.39275,5.77825 -0.74195,6.26024 -0.47674,-1.96272 -1.94526,-3.14485 -3.87939,-3.54152 -0.10826,0.44835 -0.21425,0.89777 -0.32482,1.34617 3.88441,0.96159 3.45687,4.97492 0.19032,6.21063 0.18235,0.42835 0.33962,0.86616 0.54249,1.28813 1.78812,-0.63406 3.22866,-2.12474 3.48961,-3.90764 5.24449,-0.48914 6.48698,-5.8631 2.44343,-8.36806 0.18808,-1.27335 -0.41937,-2.58576 -1.53515,-3.34741 0.9495,-3.5729 4.05725,-3.84881 7.69499,-2.36421 -2.3959,-4.99016 3.34386,-5.87399 5.79289,-3.65126 3.09301,2.74314 3.12124,11.04802 -3.67299,13.02777 z"
       class="st0"
       inkscape:connector-curvature="0"
       style="fill:#5881d8;fill-opacity:1" />
    <circle
       style="fill:#ffffff;fill-opacity:0;stroke:#000000;stroke-width:4.25209522;stroke-linejoin:miter;stroke-miterlimit:4;stroke-dasharray:none;stroke-dashoffset:0;stroke-opacity:1"
       id="path74301"
       cx="-141.91194"
       cy="663.12781"
       r="34.364174" />
    <text
       xml:space="preserve"
       style="font-style:normal;font-weight:normal;font-size:60px;line-height:125%;font-family:sans-serif;letter-spacing:0px;word-spacing:0px;fill:#5881d8;fill-opacity:1;stroke:none;stroke-width:1px;stroke-linecap:butt;stroke-linejoin:miter;stroke-opacity:1"
       x="-351.66199"
       y="1147.3778"
       id="text74303"
       sodipodi:linespacing="125%"><tspan
         sodipodi:role="line"
         id="tspan74305"
         x="-351.66199"
         y="1147.3778"
         style="font-style:normal;font-variant:normal;font-weight:500;font-stretch:normal;font-size:60px;font-family:ubuntu;-inkscape-font-specification:'ubuntu Medium';fill:#5881d8;fill-opacity:1">Mini-Challenge</tspan></text>
    <path
       id="path74164-1-9"
       d="m -461.5842,1108.8891 c 4.03495,4.055 3.66702,9.5179 -1.00969,13.1901 3.85985,2.9948 5.21519,8.2298 2.43767,12.3014 -1.78904,-0.6724 -3.91112,-0.7593 -5.66636,0.048 -1.27532,-0.8233 -2.8838,-1.19 -4.41597,-0.864 -1.16441,-3.9719 -4.79797,-5.8478 -9.15779,-4.9411 0,-0.9931 -0.23771,-1.9862 -0.78223,-2.8488 1.72004,-0.1467 3.40777,-0.7988 4.63761,-1.9359 1.81828,2.0341 4.8109,2.615 7.43196,1.0651 0.68093,1.3163 1.85505,2.4181 3.3241,2.9751 0.24071,-0.5516 0.47403,-1.1044 0.72203,-1.652 -3.01963,-1.1987 -3.96231,-5.5441 -0.70596,-7.6254 -0.36693,-0.4917 -0.72939,-0.9862 -1.09632,-1.4767 -2.06495,1.2756 -3.16558,3.668 -2.81488,5.934 -2.04547,1.5406 -4.39807,1.0609 -5.65468,-0.7009 0.60756,-1.0937 0.81156,-2.3857 0.43585,-3.5744 2.81155,-1.6009 3.07396,-4.7573 1.86242,-7.15 3.89911,-0.094 6.51461,-2.3589 6.64084,-5.9056 1.85356,-0.5379 3.31823,-2.012 3.73652,-3.7699 -0.61202,-0.1481 -1.22696,-0.2839 -1.84768,-0.398 -0.75193,3.0978 -4.86539,3.427 -7.15604,1.0066 -0.49457,0.3846 -0.973,0.7839 -1.44852,1.186 1.2122,1.2825 2.93812,2.1615 4.79607,2.2445 -0.99991,7.8848 -14.7771,2.2885 -11.99759,-4.0391 0.78348,-1.9245 3.21833,-3.4157 5.97166,-2.361 9.17734,-12.568 18.83757,0.4863 11.75698,9.2923 z m -19.71274,-3.2958 c 1.32453,3.1855 3.60284,4.7111 6.6189,5.7084 2.69477,1.9828 1.53019,6.5207 -2.15588,6.3703 2.08846,2.21 1.4076,4.1657 -0.79839,5.3974 -4.78539,2.6026 -6.07123,-1.4309 -11.75689,1.3273 -3.5837,-3.9866 0.24542,-9.9293 5.5402,-9.8344 -2.77933,-2.7416 -2.86746,-8.4658 2.55206,-8.969 z m -0.6223,25.7076 c 4.68981,-1.9139 8.69006,-1.5429 9.90922,3.0445 -1.43676,0.9808 -2.21899,2.6709 -1.9769,4.3106 -5.20896,3.2271 -3.60091,10.1466 3.14654,10.776 0.33604,2.2959 2.19109,4.2155 4.49374,5.032 0.26124,-0.5433 0.46376,-1.1071 0.69858,-1.6588 -4.20144,-1.5893 -4.76484,-6.7574 0.24509,-7.9977 -0.14238,-0.5774 -0.27879,-1.1561 -0.41828,-1.7335 -2.46998,0.5066 -4.3777,2.0163 -4.99569,4.5605 -5.30407,-0.6182 -5.85646,-5.6919 -0.95545,-8.0615 -1.15977,-4.5714 2.74091,-5.491 5.82491,-2.8203 5.5277,-4.2965 12.11022,4.359 5.6121,10.7677 7.65964,7.6708 -0.96264,17.0962 -8.31542,10.1414 -5.61094,2.0929 -9.02541,-0.9184 -8.26993,-6.203 -5.86514,1.5512 -9.45738,-2.7383 -7.7284,-8.0834 -5.47602,-1.5956 -7.5026,-6.0761 -7.25286,-10.9824 0.75109,-10.1256 13.80161,-9.046 9.98275,-1.0921 z"
       class="st0"
       inkscape:connector-curvature="0"
       style="fill:#63b132;fill-opacity:1" />
    <path
       id="path74166-0-0"
       d="m -436.47149,1099.5968 c 2.74555,-1.0518 5.18538,0.4295 5.97168,2.361 2.78115,6.3315 -10.99901,11.9134 -11.9976,4.0389 1.85795,-0.082 3.58386,-0.9618 4.79606,-2.2443 -0.47551,-0.4021 -0.95393,-0.8014 -1.44851,-1.186 -2.28999,2.4197 -6.40396,2.0917 -7.15604,-1.0066 -0.62081,0.1146 -1.23574,0.2499 -1.84768,0.398 0.41829,1.7579 1.88296,3.232 3.73652,3.7699 0.1262,3.5467 2.74207,5.812 6.64084,5.9056 -1.20004,2.3699 -0.97324,5.5354 1.86242,7.15 -0.37571,1.1887 -0.17171,2.4807 0.43585,3.5743 -1.25288,1.7566 -3.60375,2.2457 -5.65468,0.701 0.35078,-2.266 -0.74994,-4.6584 -2.81488,-5.934 -0.36693,0.4903 -0.72939,0.9848 -1.09632,1.4766 3.25512,2.0805 2.31483,6.4263 -0.70596,7.6255 0.24799,0.5476 0.4814,1.1004 0.72203,1.652 1.46905,-0.557 2.64317,-1.6588 3.3241,-2.9752 2.58577,1.529 5.58676,0.9991 7.43196,-1.0651 1.22984,1.137 2.91757,1.7892 4.6376,1.936 -0.54443,0.8626 -0.78223,1.8557 -0.78223,2.8488 -4.35542,-0.9058 -7.99229,0.9652 -9.15778,4.941 -1.53218,-0.3259 -3.14065,0.041 -4.41597,0.8641 -1.75524,-0.807 -3.87741,-0.7201 -5.66636,-0.048 -2.78067,-4.0763 -1.41745,-9.3104 2.43766,-12.3016 -4.67795,-3.673 -5.04355,-9.1359 -1.00968,-13.19 -6.28858,-7.821 0.43792,-17.1534 6.95933,-13.8272 2.0371,1.0446 3.51503,2.7782 4.79764,4.5348 z m 10.50807,14.9655 c 5.29306,-0.095 9.1254,5.8461 5.54021,9.8346 -1.29993,-0.6307 -3.12018,-1.575 -6.53375,-0.6413 -3.87119,1.0717 -9.85744,-2.0244 -6.02152,-6.0835 -3.686,0.1503 -4.85116,-4.3872 -2.15589,-6.3702 2.90259,-0.9599 5.25022,-2.417 6.61889,-5.7086 5.36529,0.4982 5.36189,6.1973 2.55206,8.969 z m 0.79981,28.8134 c 1.72607,5.3358 -1.85016,9.6379 -7.72841,8.0832 0.75566,5.2858 -2.69038,8.2842 -8.26993,6.2031 -7.40096,7.0003 -15.93248,-2.5133 -8.31541,-10.1414 -6.50609,-6.4166 0.0759,-15.0709 5.61211,-10.7678 3.04604,-2.6378 6.99403,-1.7877 5.82489,2.8203 4.88221,2.3606 4.36901,7.441 -0.95545,8.0617 -0.61392,-2.5276 -2.505,-4.0499 -4.99568,-4.5607 -0.13941,0.5774 -0.2759,1.1561 -0.41828,1.7336 5.00214,1.2383 4.45158,6.4064 0.24508,7.9977 0.23482,0.5516 0.43735,1.1154 0.69859,1.6588 2.30265,-0.8165 4.1577,-2.7362 4.49374,-5.0321 6.75359,-0.6298 8.3536,-7.5502 3.14653,-10.7759 0.2422,-1.6398 -0.54005,-3.3298 -1.97689,-4.3106 1.22272,-4.601 5.22472,-4.9564 9.90921,-3.0446 -3.08532,-6.426 4.30605,-7.5641 7.45978,-4.7018 3.98302,3.5324 4.01938,14.227 -4.72988,16.7765 z"
       class="st0"
       inkscape:connector-curvature="0"
       style="fill:#5881d8;fill-opacity:1" />
    <path
       style="fill:#ffffff;fill-opacity:0;stroke:#000000;stroke-width:6;stroke-linejoin:miter;stroke-miterlimit:4;stroke-dasharray:none;stroke-dashoffset:0;stroke-opacity:1"
       d="m -454.66195,1084.1258 a 44.252407,44.252407 0 0 0 -44.25195,44.252 44.252407,44.252407 0 0 0 44.25195,44.2519 44.252407,44.252407 0 0 0 33.39258,-15.2578 c 3.86974,4.9176 11.08893,8.2207 19.41211,8.2207 l 520.64062,0 c 12.42329,0 22.42578,-7.3414 22.42578,-16.4609 l 0,-39.5078 c 0,-9.1196 -10.00249,-16.461 -22.42578,-16.461 l -520.64062,0 c -7.74558,0 -14.54843,2.8556 -18.57422,7.2149 a 44.252407,44.252407 0 0 0 -34.23047,-16.252 z"
       id="path74301-3"
       inkscape:connector-curvature="0" />
  </g>
  <style
     id="style74156"
     type="text/css">
	.st0{fill:#FFFFFF;}
</style>
</svg>
